<?xml version="1.0" encoding="utf-8"?>
<!-- Generator: Adobe Illustrator 26.0.1, SVG Export Plug-In . SVG Version: 6.00 Build 0)  -->
<svg version="1.1" id="Capa_1" xmlns="http://www.w3.org/2000/svg" xmlns:xlink="http://www.w3.org/1999/xlink" x="0px" y="0px"
	 viewBox="0 0 800 800" style="enable-background:new 0 0 800 800;" xml:space="preserve">
<style type="text/css">
	.st0{fill:#F4F2EA;}
	.st1{fill:#FF0000;}
</style>
<g>
	<path class="st0" d="M770.5,484.7l-27.6-15.9c4.6-23,7-46.1,7-68.7c0-22.9-2.3-46-6.9-68.8l27.5-15.9c8.5-4.9,14.6-12.8,17.1-22.3
		s1.2-19.4-3.7-27.9L708.8,135c-4.9-8.5-12.8-14.6-22.3-17.1s-19.4-1.2-27.9,3.7l-27.5,15.9c-34.7-30.6-75.6-54.2-119.1-68.9V36.8
		C512,16.5,495.5,0,475.2,0H324.9c-20.3,0-36.8,16.5-36.8,36.8v31.6c-43.3,14.7-84.1,38.3-119,69l-27.7-16
		c-8.5-4.9-18.4-6.2-27.9-3.7s-17.4,8.6-22.3,17.1L16,265.1c-4.9,8.5-6.2,18.4-3.7,27.9s8.6,17.4,17.1,22.3L57,331.2
		c-4.6,23-7,46.1-7,68.7c0,22.9,2.3,46,6.9,68.8l-27.5,15.9C11.9,494.8,5.9,517.4,16,534.9l75.1,130.2
		c10.1,17.6,32.7,23.6,50.3,13.5l27.5-15.9c34.7,30.6,75.6,54.2,119.1,68.9v31.6c0,20.3,16.5,36.8,36.8,36.8h150.3
		c20.3,0,36.8-16.5,36.8-36.8v-31.6c43.3-14.7,84.1-38.3,119-69l27.7,16c17.6,10.1,40.1,4.1,50.3-13.5L784,534.9
		C794.1,517.4,788.1,494.8,770.5,484.7z M763.6,523.2l-75.1,130.2c-3.7,6.4-11.8,8.5-18.2,4.9l-35-20.3c-4.5-2.6-10.1-1.9-13.8,1.5
		c-35.8,33.1-79,58.2-124.7,72.3c-4.9,1.5-8.3,6.1-8.3,11.2v40.2c0,7.3-6,13.3-13.3,13.3H324.9c-7.3,0-13.3-6-13.3-13.3v-40.1
		c0-5.1-3.4-9.7-8.3-11.2c-46-14.3-89.2-39.2-124.9-72.2c-2.2-2.1-5.1-3.1-8-3.1c-2,0-4,0.5-5.9,1.6l-34.9,20.1
		c-6.4,3.7-14.5,1.5-18.2-4.9l-75-130.2c-3.7-6.4-1.5-14.5,4.9-18.2l34.9-20.1c4.5-2.6,6.7-7.7,5.6-12.8
		c-5.4-23.8-8.1-48.1-8.1-72.1c0-23.6,2.8-47.9,8.2-72.1c1.1-5-1.1-10.2-5.6-12.8l-35-20.2c-3.1-1.8-5.3-4.6-6.2-8.1
		c-0.9-3.4-0.4-7,1.3-10.1l75.1-130.2c1.8-3.1,4.6-5.3,8.1-6.2c3.4-0.9,7-0.4,10.1,1.3l35.1,20.2c4.5,2.6,10.1,1.9,13.8-1.5
		c35.8-33.1,79-58.2,124.7-72.3c4.9-1.5,8.3-6.1,8.3-11.2v-40c0-7.3,6-13.3,13.3-13.3h150.3c7.3,0,13.3,6,13.3,13.3v40.1
		c0,5.1,3.4,9.7,8.3,11.2c46,14.3,89.2,39.2,124.9,72.2c3.8,3.5,9.4,4.1,13.8,1.5l34.9-20.1c3.1-1.8,6.7-2.2,10.1-1.3
		c3.4,0.9,6.3,3.1,8.1,6.2l75.1,130.2c1.8,3.1,2.2,6.7,1.3,10.1s-3.1,6.3-6.2,8.1l-34.9,20.1c-4.5,2.6-6.7,7.7-5.6,12.8
		c5.4,23.8,8.1,48.1,8.1,72.1c0,23.6-2.8,47.9-8.2,72c-1.1,5,1.1,10.2,5.6,12.8l35,20.2C765.1,508.7,767.3,516.8,763.6,523.2z"/>
	<path class="st0" d="M400,162.8c-130.8,0-237.2,106.4-237.2,237.2S269.2,637.2,400,637.2S637.2,530.8,637.2,400
		S530.8,162.8,400,162.8z M400,613.7c-117.8,0-213.7-95.9-213.7-213.7S282.2,186.3,400,186.3S613.7,282.2,613.7,400
		S517.8,613.7,400,613.7z"/>
	<path class="st1" d="M443.8,338.2H400c-6.5,0-11.7,5.3-11.7,11.7v100.2c0,6.5,5.3,11.7,11.7,11.7s11.7-5.3,11.7-11.7v-25.8h32.1
		c23.7,0,43.1-19.3,43.1-43.1C486.9,357.5,467.6,338.2,443.8,338.2z M443.8,400.8h-32.1v-39.1h32.1c10.8,0,19.6,8.8,19.6,19.6
		C463.4,392,454.6,400.8,443.8,400.8z"/>
	<path class="st1" d="M335.8,345.8c-1.7-4.6-6.1-7.6-11-7.6h-12.5c-4.9,0-9.3,3-11,7.6L263.8,446c-2.3,6.1,0.8,12.8,6.9,15.1
		c6.1,2.3,12.8-0.8,15.1-6.9l6.5-17.4h52.6l6.5,17.4c1.8,4.7,6.2,7.6,11,7.6c1.4,0,2.8-0.2,4.1-0.7c6.1-2.3,9.1-9,6.9-15.1
		L335.8,345.8z M301.1,413.3l17.5-46.7l17.5,46.7H301.1z"/>
	<path class="st1" d="M512.7,338.2c-6.5,0-11.7,5.3-11.7,11.7v100.2c0,6.5,5.3,11.7,11.7,11.7c6.5,0,11.7-5.3,11.7-11.7V349.9
		C524.5,343.4,519.2,338.2,512.7,338.2z"/>
	<path class="st1" d="M484,136.7c8.1,2.6,16.3,5.6,24.1,9c1.5,0.6,3.1,0.9,4.6,0.9c4.6,0,8.9-2.7,10.8-7.1c2.5-6-0.2-12.9-6.2-15.4
		c-8.5-3.6-17.4-6.9-26.2-9.7c-6.2-2-12.8,1.4-14.8,7.6C474.4,128.1,477.8,134.7,484,136.7z"/>
	<path class="st1" d="M157.3,532.1c-3.1-5.7-10.2-7.8-15.9-4.7s-7.8,10.2-4.7,15.9c4.9,8.9,10.3,17.7,16,26.1c2.3,3.3,6,5.1,9.7,5.1
		c2.3,0,4.6-0.7,6.6-2.1c5.3-3.7,6.7-11,3-16.3C166.7,548.5,161.8,540.4,157.3,532.1z"/>
	<path class="st1" d="M376,675.3c-62.9-5.4-122.6-32.7-168.2-76.8c-4.7-4.5-12.1-4.4-16.6,0.3s-4.4,12.1,0.3,16.6
		c49.4,47.8,114.2,77.4,182.5,83.3c0.3,0,0.7,0,1,0c6,0,11.2-4.6,11.7-10.7C387.2,681.5,382.4,675.8,376,675.3z"/>
	<path class="st1" d="M569,152.3c-5.4-3.7-12.7-2.3-16.3,3.1c-3.7,5.4-2.3,12.7,3.1,16.3c54.6,37.3,94,92.8,111.1,156.2
		c1.4,5.2,6.2,8.7,11.3,8.7c1,0,2-0.1,3.1-0.4c6.3-1.7,10-8.1,8.3-14.4C670.9,252.9,628.1,192.7,569,152.3z"/>
</g>
</svg>
