<?xml version="1.0" encoding="utf-8"?>
<!-- Generator: Adobe Illustrator 26.0.1, SVG Export Plug-In . SVG Version: 6.00 Build 0)  -->
<svg version="1.1" id="Layer_1" xmlns="http://www.w3.org/2000/svg" xmlns:xlink="http://www.w3.org/1999/xlink" x="0px" y="0px"
	 viewBox="0 0 800 800" style="enable-background:new 0 0 800 800;" xml:space="preserve">
<style type="text/css">
	.st0{fill:#FF0000;}
	.st1{fill:#F4F2EA;}
	.st2{fill:#F4F2EA;stroke:#FFFFFF;stroke-miterlimit:10;}
	.st3{fill:none;}
</style>
<g>
	<g>
		<path class="st0" d="M469.5,599.5h-0.1c-23.3-33.2-60.7-52.8-101.7-52.8c-68.6,0-124.4,55.8-124.4,124.4c0,8.2,6.6,14.8,14.8,14.8
			c8.2,0,14.8-6.6,14.8-14.8c0-52.3,42.6-94.9,94.9-94.9c33.6,0,64,17.2,81.3,46c2.9,4.9,8.4,7.6,14,7.1c2.2-0.2,4.4-0.3,6.5-0.3
			c37.8,0,68.5,30.7,68.5,68.5c0,8.2,6.6,14.8,14.8,14.8s14.8-6.6,14.8-14.8C567.5,643.5,523.6,599.5,469.5,599.5z"/>
	</g>
</g>
<path class="st1" d="M618,354"/>
<line class="st2" x1="718.3" y1="586.6" x2="692.8" y2="570"/>
<g>
	<path class="st3" d="M331.2,379l7.2,32.5c6.9-5.7,14.1-10.9,21.7-15.7c12-7.6,24.7-13.9,37.8-19l-2.6-12L331.2,379z"/>
	<path class="st3" d="M598,249.7c29.7-41,34.8-106,29-144.6c-3.7-24.7-32.7-55-44-71c-0.8,31.4,11.5,45.5-41,107.8
		c-29.4,18.7-49.8,49.7-25,99l12.3,8.8H598z"/>
	<path class="st3" d="M408.6,330.2c0.5-0.7,0.9-1.8,0.6-3.2c-0.3-1.4-1.1-2.2-1.8-2.6c-0.5-0.4-1.2-0.7-2.2-0.7
		c-0.3,0-0.6,0-0.9,0.1l-96.5,21.4l-2.1,0.5c-1.4,0.4-2.2,1.2-2.6,1.9c-0.5,0.7-0.9,1.8-0.6,3.2c0.3,1.4,1.1,2.2,1.8,2.6
		c0.7,0.5,1.8,0.9,3.2,0.6l2.7-0.6h0.1l95.7-21.3C407.4,331.7,408.2,330.9,408.6,330.2z"/>
	<path class="st3" d="M315.7,313.4l65.6-14.6l-3-13.5c-2.8-12.5-1.9-25.3,2.4-36c4.1-9.9,1.3-24.7-6.1-33.2l-41.5-47.4l10.5,47.1
		c1.8,7.9-3.2,15.8-11.2,17.6c-1.1,0.3-2.1,0.4-3.2,0.4c-6.8,0-12.9-4.7-14.4-11.6l-10.5-47.1l-17.5,60.5
		c-3.1,10.8,0.7,25.4,8.5,32.6c8.4,7.8,14.6,19,17.4,31.7L315.7,313.4z"/>
	<polygon class="st3" points="533.5,296.8 570.7,300 573.2,278.6 534.7,275.3 	"/>
	<polygon class="st3" points="703.9,348.4 676.3,323.7 674,332.1 641,429.5 664.5,470.4 	"/>
	<path class="st3" d="M531.8,326.3l-2.5,42.6c11,2.8,21.8,6.5,32.1,10.9l5.9-50.4L531.8,326.3z"/>
	<path class="st3" d="M764.4,366.4c-9.6-0.7-19.1-2.2-28.4-4.5l-53.2,151.4c5.7,18,9.2,37.1,10,56.8L764.4,366.4z"/>
	<path class="st3" d="M759.1,321c-7.8,0-15.6-1.4-23.1-4c-8.4-2.9-16.1-7.4-22.7-13.2l-13.2,9.9c19.5,13.5,42.4,21.6,65.9,23.2
		l-4.1-16C761,320.9,760,321,759.1,321z"/>
	<path class="st3" d="M663,590c0.2-4,0.3-7.6,0.3-10.9c0-103.3-84-187.4-187.4-187.4c-71.8,0-136.2,40.1-168.1,104.5
		c-3,6.2-10,9.4-16.7,7.8c-10.3-2.5-21-3.8-31.6-3.8c-58.4,0-110.9,39.1-127.6,95.1c-2,6.7-8.3,11.1-15.3,10.5
		c-2.4-0.2-4.5-0.3-6.5-0.3c-44.4,0-80.6,36.1-80.6,80.6s36.2,80.6,80.6,80.6h561c44.4,0,80.6-36.2,80.6-80.6
		c0-42.1-32.8-77.4-75-80.5C668.6,605,662.5,598.1,663,590z"/>
	<path class="st3" d="M58,484.6l53.2,82.1c11.2-24.7,28.5-46.6,50.3-63.1c23.2-17.5,50-28.3,78.4-31.7l-47.9-74L58,484.6z"/>
	<path class="st3" d="M754.3,291.2l-3.9-15.1l-12.5,9.3c2.5,1.6,5.1,2.8,7.9,3.8S751.4,290.8,754.3,291.2z"/>
	<path class="st0" d="M799.5,347.9l-26-100.6c-1.2-4.8-4.8-8.6-9.4-10.2c-4.6-1.6-9.8-0.8-13.7,2.1l-83.2,62.2
		c-2.3,1.8-4.1,4.2-5.1,6.9L623,419.7l18,9.8l33-97.4l2.4-8.5l27.6,24.8l-39.4,122l18.3,42.8L736,361.9c9.3,2.3,18.8,3.8,28.4,4.5
		l-71.6,203.7l25.5,16.6l80.8-230.2C800.1,353.8,800.3,350.8,799.5,347.9z M750.4,276.1l3.9,15.1c-2.9-0.4-5.7-1-8.5-2
		s-5.4-2.2-7.9-3.8L750.4,276.1z M700.1,313.7l13.2-9.9c6.6,5.8,14.3,10.3,22.7,13.2c7.5,2.6,15.3,4,23.1,4c0.9,0,1.9-0.1,2.8-0.1
		l4.1,16C742.5,335.3,719.6,327.2,700.1,313.7z"/>
	<path class="st1" d="M682.8,513.3l-18.3-42.8L641,429.5l-18-9.8c-10.3-9.5-21.5-18-33.5-25.4l-28.1-14.5
		c-10.3-4.4-21.1-8.1-32.1-10.9l-29.3-5.3c-7.9-0.9-15.9-1.3-24-1.3c-16.9,0-33.6,2-49.9,5.8l-28.2,8.7c-13.1,5.1-25.8,11.4-37.8,19
		c-7.6,4.8-14.8,10-21.7,15.7l-25.1,24.2c-10.1,11.5-19.1,24-26.6,37.4c-4-0.7-8.1-1.2-12.1-1.6l-34.7,0.4
		c-28.4,3.4-55.2,14.2-78.4,31.7c-21.8,16.5-39.1,38.4-50.3,63.1L84,579.2C35.9,590.9,0,634.4,0,686.1
		c0,60.7,49.4,110.1,110.1,110.1h561c60.7,0,110.1-49.4,110.1-110.1c0-43.5-25.7-81.6-62.9-99.4l-25.5-16.6
		C692,550.4,688.5,531.3,682.8,513.3z M751.7,686.1c0,44.4-36.2,80.6-80.6,80.6h-561c-44.4,0-80.6-36.1-80.6-80.6
		s36.2-80.6,80.6-80.6c2,0,4.1,0.1,6.5,0.3c7,0.6,13.3-3.8,15.3-10.5c16.7-56,69.2-95.1,127.6-95.1c10.6,0,21.3,1.3,31.6,3.8
		c6.7,1.6,13.7-1.6,16.7-7.8c31.9-64.4,96.3-104.5,168.1-104.5c103.4,0,187.4,84.1,187.4,187.4c0,3.3-0.1,6.9-0.3,10.9
		c-0.5,8.1,5.6,15,13.7,15.6C718.9,608.7,751.7,644,751.7,686.1z"/>
	<path class="st0" d="M58,484.6l134-86.7l47.9,74l34.7-0.4l-66-102c-2.1-3.3-5.5-5.6-9.3-6.4c-3.8-0.8-7.8-0.1-11.1,2L29.6,467.9
		c-6.8,4.4-8.8,13.6-4.4,20.4L84,579.2l27.2-12.5L58,484.6z"/>
	<path class="st0" d="M331.2,379l64.1-14.2l2.6,12l28.2-8.7l-2.6-11.8c4-2.6,7.4-6,10-10.1c4.8-7.6,6.4-16.6,4.5-25.4
		c-2-8.8-7.2-16.3-14.8-21.2c-3.9-2.5-8.2-4.1-12.6-4.8l-3.5-15.9c-1.5-6.7-1.1-13.4,0.9-18.5c8.2-20.1,3.5-46.9-11.3-63.8l-79.6-91
		c-3.6-4.1-9.1-5.9-14.3-4.7c-5.3,1.2-9.5,5.1-11,10.3l-33.5,116.2c-6.2,21.5,0.9,47.8,16.8,62.5c4,3.7,7.2,9.7,8.7,16.3l3.5,15.9
		c-3.7,2.5-6.9,5.8-9.3,9.7c-4.8,7.6-6.4,16.6-4.5,25.4c2,8.8,7.2,16.3,14.8,21.2c4.1,2.6,8.7,4.3,13.4,5l11.6,52.3l25.1-24.2
		L331.2,379z M295.3,268.2c-7.8-7.2-11.6-21.8-8.5-32.6l17.5-60.5l10.5,47.1c1.5,6.9,7.6,11.6,14.4,11.6c1.1,0,2.1-0.1,3.2-0.4
		c8-1.8,13-9.7,11.2-17.6l-10.5-47.1l41.5,47.4c7.4,8.5,10.2,23.3,6.1,33.2c-4.3,10.7-5.2,23.5-2.4,36l3,13.5l-65.6,14.6l-3-13.5
		C309.9,287.2,303.7,276,295.3,268.2z M310.3,353.4L310.3,353.4l-2.8,0.6c-1.4,0.3-2.5-0.1-3.2-0.6c-0.7-0.4-1.5-1.2-1.8-2.6
		c-0.3-1.4,0.1-2.5,0.6-3.2c0.4-0.7,1.2-1.5,2.6-1.9l2.1-0.5l96.5-21.4c0.3-0.1,0.6-0.1,0.9-0.1c1,0,1.7,0.3,2.2,0.7
		c0.7,0.4,1.5,1.2,1.8,2.6c0.3,1.4-0.1,2.5-0.6,3.2c-0.4,0.7-1.2,1.5-2.6,1.9L310.3,353.4z"/>
	<path class="st0" d="M531.8,326.3l35.5,3.1l-5.9,50.4l28.1,14.5l14.3-123.5c36.4-48.7,51.2-97.6,44.1-145.5
		c-11-73.7-70.5-116.9-73.1-118.7c-5.3-3.8-12.4-3.6-17.6,0.3c-5.2,4-7.1,10.9-4.8,16.9l6.9,18.2c11.2,29.6,0,63.3-26.7,80.3
		c-42.4,26.9-57.1,80.8-34.2,125.5l7.4,14.4L500,363.6l29.3,5.3L531.8,326.3z M570.7,300l-37.2-3.2l1.2-21.5l38.5,3.3L570.7,300z
		 M542,141.9c52.5-62.3,40.2-76.4,41-107.8c11.3,16,40.3,46.3,44,71c5.8,38.6,0.7,103.6-29,144.6h-68.7l-12.3-8.8
		C492.2,191.6,512.6,160.6,542,141.9z"/>
</g>
</svg>
