<?xml version="1.0" encoding="utf-8"?>
<!-- Generator: Adobe Illustrator 26.0.1, SVG Export Plug-In . SVG Version: 6.00 Build 0)  -->
<svg version="1.1" id="Capa_1" xmlns="http://www.w3.org/2000/svg" xmlns:xlink="http://www.w3.org/1999/xlink" x="0px" y="0px"
	 viewBox="0 0 800 800" style="enable-background:new 0 0 800 800;" xml:space="preserve">
<style type="text/css">
	.st0{fill:none;}
</style>
<path d="M636.2,509.5l-105.6-48.7c-6.9-3.2-15-1.2-19.6,4.8l-41.5,53.8c-3.1,4.1-8.5,5.7-13.3,4c-28.4-10-123.5-49.8-175.7-150.4
	c-2.3-4.4-1.7-9.7,1.5-13.4l39.6-45.9c4-4.7,5.1-11.3,2.6-17l-45.5-106.5c-2.4-5.7-7.9-9.5-14-9.8l-31.3-1.7
	c-9.8-0.5-19.4,2.7-26.9,9.2c-15.2,13.2-39.4,38.6-46.8,71.8c-11.1,49.4,6.1,110,50.4,170.5c44.4,60.5,127.1,157.4,273.4,198.7
	c47.1,13.3,84.2,4.3,112.8-14c22.7-14.5,38.3-37.8,43.9-64.1l5-23.3C646.9,520.2,643.1,512.7,636.2,509.5z"/>
<path class="st0" d="M639.2,543.9c-5.6,26.3-21.2,49.6-43.9,64.1c-28.6,18.3-65.7,27.3-112.8,14c-146.3-41.4-229-138.2-273.4-198.7
	c-44.4-60.5-61.5-121.1-50.4-170.5c7.4-33.2,31.7-58.6,46.8-71.8c7.4-6.4,17.1-9.7,26.9-9.2l31.3,1.7c6.2,0.3,11.6,4.1,14,9.8
	l45.5,106.5c2.4,5.7,1.4,12.3-2.6,17l-39.6,45.9c-3.2,3.7-3.8,9-1.5,13.4c52.2,100.6,147.3,140.4,175.7,150.4
	c4.8,1.7,10.2,0.1,13.3-4l41.5-53.8c4.6-6,12.7-8,19.6-4.8l105.6,48.7c6.9,3.2,10.6,10.7,9.1,18.1L639.2,543.9z"/>
<path d="M400,0C179.4,0,0,179.4,0,400c0,76.9,21.8,151.5,63.2,215.8l9.9,15.5L34.2,769.5l143-36.8l14.7,9
	C254.4,779.8,326.4,800,400,800c220.6,0,400-179.4,400-400S620.6,0,400,0z M401.5,725c-70.7,0-136.1-22.5-189.5-60.6l-10.4,3
	l-91.3,25.9l25.9-83.4l4.6-14.9C99.5,540.3,75,472.3,75,398.5C75,218.2,221.2,72,401.5,72S728,218.2,728,398.5S581.8,725,401.5,725z
	"/>
</svg>
