<?xml version="1.0" encoding="utf-8"?>
<!-- Generator: Adobe Illustrator 26.0.1, SVG Export Plug-In . SVG Version: 6.00 Build 0)  -->
<svg version="1.1" id="Layer_1" xmlns="http://www.w3.org/2000/svg" xmlns:xlink="http://www.w3.org/1999/xlink" x="0px" y="0px"
	 viewBox="0 0 800 800" style="enable-background:new 0 0 800 800;" xml:space="preserve">
<g>
	<path d="M400,0C179.1,0,0,179.1,0,400c0,220.9,179.1,400,400,400s400-179.1,400-400C800,179.1,620.9,0,400,0z M512,704.7
		c-2.3-31.3-4.9-70.1-5-85.8c-1-12-2.3-42.7-31.4-62.3c115.5-9.7,170.5-73.5,174.5-157.9c3.3-48-15.8-90.3-49.7-124.4
		c1.7-36.5-1.1-79.7-3.4-98.7c-26-7.5-86.8,24.6-103.8,38.3c-35.8-13.9-123.4-18.8-176.7,0c-37.8-26.5-80.7-42.9-104.1-38.4
		c-21.6,47.9-7.7,93.2-3.5,98.6c-27.9,25.5-66.7,56.8-56.1,122.4c16.9,96.2,84.6,148.1,193.6,160.8c-23.2,4.8-27.2,22.1-29.1,29.6
		c-73.2,30.2-94.1-18.6-103.4-31.4c-30.7-38-58.3-27-60-26.4c-1.7,0.6-2.9,3-2.7,4.1c1.5,8.2,18.3,16.5,19.1,17.2
		c22.7,16.9,31.1,47.4,36.2,56.1c32.5,53.5,108.1,31.3,108.9,31.8c0,4.7-0.5,44-1,74.7C176.4,675.5,75,549.8,75,400
		C75,220.5,220.5,75,400,75s325,145.5,325,325C725,540.1,636.2,659,512,704.7z"/>
</g>
</svg>
