<?xml version="1.0" encoding="utf-8"?>
<!-- Generator: Adobe Illustrator 26.0.1, SVG Export Plug-In . SVG Version: 6.00 Build 0)  -->
<svg version="1.1" id="Layer_1" xmlns="http://www.w3.org/2000/svg" xmlns:xlink="http://www.w3.org/1999/xlink" x="0px" y="0px"
	 viewBox="0 0 800 800" style="enable-background:new 0 0 800 800;" xml:space="preserve">
<style type="text/css">
	.st0{fill:#F4F2EA;stroke:#F4F2EA;stroke-miterlimit:10;}
	.st1{fill:none;stroke:#FF0000;stroke-width:28;stroke-miterlimit:10;}
	.st2{fill:none;stroke:#FF0000;stroke-width:28;stroke-linecap:round;stroke-linejoin:round;stroke-miterlimit:16.6667;}
</style>
<path class="st0" d="M322.7,73.1l-29.1-3.5L322.7,73.1L322.7,73.1z M477.3,73.1l29.1-3.5L477.3,73.1L477.3,73.1z M644.4,169.6
	l-11.5-26.9L644.4,169.6L644.4,169.6z M693.6,186l25.4-14.6L693.6,186z M732.2,252.7l25.4-14.6L732.2,252.7z M721.8,303.5L704.3,280
	L721.8,303.5z M721.8,496.5l17.5-23.5L721.8,496.5z M732.2,547.3l25.4,14.6L732.2,547.3z M693.6,614l-25.4-14.6L693.6,614z
	 M644.4,630.4l11.5-26.9L644.4,630.4z M477.3,726.9l29.1,3.5L477.3,726.9z M322.7,726.9l-29.1,3.5L322.7,726.9z M155.6,630.4
	L144,603.5L155.6,630.4z M106.4,614L81,628.7L106.4,614L106.4,614z M67.8,547.3l25.4-14.6L67.8,547.3z M78.2,496.5L95.7,520
	C95.8,519.9,78.2,496.5,78.2,496.5z M78.2,303.5L60.7,327L78.2,303.5L78.2,303.5z M67.8,252.7l25.4,14.6L67.8,252.7z M106.4,186
	L81,171.3L106.4,186z M155.6,169.6l11.5-26.9L155.6,169.6L155.6,169.6z M317.7,114.6l-29.1-3.5L317.7,114.6L317.7,114.6z M193.9,614
	l11.5,26.9L193.9,614L193.9,614z M108.2,474.1l17.5,23.5L108.2,474.1z M483.3,676.9l-29.1-3.5L483.3,676.9z M598,610.5l11.5-26.9
	L598,610.5L598,610.5z M317.7,685.4l-29.1,3.5L317.7,685.4z M677.9,463.7l-17.5,23.5L677.9,463.7z M677.9,336.3l17.5,23.5
	L677.9,336.3z M361.4,9.4c-34.6,0-63.8,25.9-67.9,60.3l58.2,6.9c0.6-4.9,4.7-8.6,9.7-8.6L361.4,9.4L361.4,9.4z M438.6,9.4h-77.1V68
	h77.1V9.4z M506.4,69.7c-4.1-34.4-33.3-60.3-67.9-60.3V68c4.9,0,9.1,3.7,9.7,8.6L506.4,69.7L506.4,69.7z M512.4,119.7l-6-50
	l-58.2,6.9l6,50L512.4,119.7z M632.9,142.7l-46.4,19.9l23.1,53.8l46.4-19.9L632.9,142.7z M719,171.3c-17.3-30-54.3-42.3-86.1-28.6
	l23.1,53.9c4.5-2,9.8-0.2,12.3,4.1L719,171.3z M757.6,238.1L719,171.3l-50.7,29.3l38.6,66.8L757.6,238.1z M739.3,327
	c27.7-20.7,35.6-58.9,18.3-88.9l-50.7,29.3c2.5,4.3,1.4,9.7-2.6,12.7L739.3,327z M695.4,359.8l43.9-32.8l-35.1-46.9l-43.9,32.8
	L695.4,359.8z M739.3,473l-43.9-32.8l-35.1,46.9l43.9,32.8L739.3,473z M757.6,561.9c17.3-30,9.5-68.2-18.3-88.9l-35.1,46.9
	c4,3,5.1,8.4,2.6,12.7L757.6,561.9z M719,628.7l38.6-66.8l-50.7-29.3l-38.6,66.8L719,628.7z M632.9,657.3
	c31.8,13.6,68.8,1.3,86.1-28.6l-50.7-29.3c-2.5,4.3-7.8,6-12.3,4.1L632.9,657.3z M586.4,637.4l46.4,19.9l23.1-53.9l-46.4-19.9
	L586.4,637.4L586.4,637.4z M506.4,730.3l6-50l-58.2-6.9l-6,50L506.4,730.3z M438.6,790.6c34.6,0,63.8-25.9,67.9-60.3l-58.2-6.9
	c-0.6,4.9-4.7,8.6-9.7,8.6L438.6,790.6L438.6,790.6z M361.4,790.6h77.1V732h-77.1V790.6L361.4,790.6z M293.6,730.3
	c4.1,34.4,33.3,60.3,67.9,60.3V732c-4.9,0-9.1-3.7-9.7-8.6L293.6,730.3L293.6,730.3z M288.6,688.8l4.9,41.5l58.2-6.9l-4.9-41.5
	L288.6,688.8z M182.4,587.1L144,603.5l23.1,53.9l38.3-16.4L182.4,587.1L182.4,587.1z M144,603.5c-4.5,1.9-9.8,0.2-12.3-4.1L81,628.7
	c17.3,30,54.3,42.3,86.1,28.6L144,603.5z M131.7,599.4l-38.6-66.8l-50.7,29.3L81,628.7L131.7,599.4L131.7,599.4z M93.2,532.6
	c-2.5-4.3-1.4-9.7,2.6-12.7L60.7,473c-27.7,20.7-35.6,58.9-18.3,88.9L93.2,532.6L93.2,532.6z M95.8,519.9l29.9-22.4l-35.1-46.9
	L60.7,473L95.8,519.9z M60.7,327l29.9,22.4l35.1-46.9l-29.9-22.4C95.8,280.1,60.7,327,60.7,327z M42.4,238.1
	c-17.3,30-9.5,68.2,18.3,88.9l35.1-46.9c-4-3-5.1-8.4-2.6-12.7C93.2,267.4,42.4,238.1,42.4,238.1z M81,171.3l-38.6,66.8l50.7,29.3
	l38.6-66.8L81,171.3L81,171.3z M167.1,142.7c-31.8-13.6-68.8-1.3-86.1,28.6l50.7,29.3c2.5-4.3,7.8-6,12.3-4.1L167.1,142.7z
	 M205.5,159.1l-38.3-16.4L144,196.5l38.3,16.4L205.5,159.1z M293.6,69.7l-4.9,41.5l58.2,6.9l4.9-41.5
	C351.7,76.6,293.6,69.7,293.6,69.7z M285,204.2c29.7-16.7,57.1-46.4,61.8-86.1l-58.2-6.9c-1.9,15.7-13.5,31.3-32.4,42L285,204.2
	L285,204.2z M182.4,212.9c35.6,15.3,73.5,7.7,102.6-8.8l-28.8-51c-18.1,10.2-36.5,12.1-50.8,5.9L182.4,212.9L182.4,212.9z
	 M170.5,400c0-34.7-12.4-73.3-44.8-97.5l-35.1,46.9c13.3,9.9,21.3,28.3,21.3,50.6H170.5z M285,595.8c-29.1-16.4-67.1-24-102.6-8.8
	l23.1,53.9c14.2-6.1,32.7-4.3,50.8,5.9L285,595.8L285,595.8z M125.7,497.5c32.3-24.2,44.8-62.9,44.8-97.5h-58.6
	c0,22.3-8,40.7-21.3,50.6L125.7,497.5L125.7,497.5z M509.9,593.1c-27,16.1-51.4,43.9-55.7,80.3l58.2,6.9
	c1.6-13.5,11.3-27.3,27.5-36.9L509.9,593.1z M609.5,583.6c-34.6-14.9-71.6-7.1-99.6,9.5l30,50.3c16.5-9.8,33.6-11.6,46.5-6
	L609.5,583.6z M346.8,681.9c-4.7-39.7-32.1-69.3-61.8-86.1l-28.8,51c18.9,10.6,30.5,26.3,32.4,42L346.8,681.9L346.8,681.9z
	 M619.7,400c0,31.2,11.7,65.5,40.6,87.1l35.1-46.9c-10.4-7.8-17.1-22.3-17.1-40.2H619.7z M660.3,312.9
	c-28.9,21.6-40.6,55.9-40.6,87.1h58.6c0-17.9,6.7-32.4,17.1-40.2L660.3,312.9L660.3,312.9z M509.9,206.9c28,16.7,65,24.4,99.6,9.5
	l-23.1-53.9c-13,5.6-30,3.8-46.5-6L509.9,206.9L509.9,206.9z M454.2,126.6c4.3,36.4,28.7,64.2,55.7,80.3l30-50.3
	c-16.2-9.6-25.9-23.4-27.5-36.9L454.2,126.6L454.2,126.6z"/>
<g>
	<path class="st1" d="M355.6,329h88.8c14.7,0,26.6,11.9,26.6,26.6v88.8c0,14.7-11.9,26.6-26.6,26.6h-88.8
		c-14.7,0-26.6-11.9-26.6-26.6v-88.8C329,340.9,340.9,329,355.6,329z"/>
	<path class="st2" d="M360.1,320.1v-44.4 M479.9,360.1h44.4 M360.1,524.3v-44.4 M275.7,360.1h44.4 M439.9,320.1v-44.4 M479.9,439.9
		h44.4 M439.9,524.3v-44.4 M275.7,439.9h44.4"/>
</g>
</svg>
