<?xml version="1.0" encoding="utf-8"?>
<!-- Generator: Adobe Illustrator 26.0.1, SVG Export Plug-In . SVG Version: 6.00 Build 0)  -->
<svg version="1.1" id="Layer_1" xmlns="http://www.w3.org/2000/svg" xmlns:xlink="http://www.w3.org/1999/xlink" x="0px" y="0px"
	 viewBox="0 0 800 800" style="enable-background:new 0 0 800 800;" xml:space="preserve">
<path d="M646.1,251.5c-18.6,8.1-38.6,13.8-59.4,16.1c21.4-12.7,37.6-32.9,45.3-56.7c-19.9,11.7-42.1,20.4-65.4,24.8
	c-18.8-20-45.6-32.5-75.3-32.5c-62.9,0-115.3,56.7-100.7,126.8c-82.9-4.1-160.2-43.3-212.5-107.7c-9,15.2-14,32.8-14,52
	c0,34.5,17.3,66.6,45.9,85.7c-16.8-0.6-32.9-5.4-46.5-13.1v1.3c-0.1,49.1,34.4,91.4,82.5,101.1c-16.3,4.2-30.6,4.2-46.5,1.9
	c13,40.8,51,70.5,96.3,71.5c-35.4,27.7-79.7,44-128,44c-8.5,0-16.5-0.4-24.9-1.3c45.7,29.2,99.8,46.2,158.3,46.2
	c189.6,0,293.3-156.9,293.3-293.1c0-4.5,0-9-0.3-13.4C614.6,290.4,632.1,272.1,646.1,251.5z"/>
<path d="M400,0C179.1,0,0,179.1,0,400s179.1,400,400,400s400-179.1,400-400S620.9,0,400,0z M403.5,714C228.1,714,86,571.9,86,396.5
	S228.1,79,403.5,79S721,221.1,721,396.5S578.9,714,403.5,714z"/>
</svg>
