<?xml version="1.0" encoding="utf-8"?>
<!-- Generator: Adobe Illustrator 26.0.1, SVG Export Plug-In . SVG Version: 6.00 Build 0)  -->
<svg version="1.1" id="Capa_1" xmlns="http://www.w3.org/2000/svg" xmlns:xlink="http://www.w3.org/1999/xlink" x="0px" y="0px"
	 viewBox="0 0 800 800" style="enable-background:new 0 0 800 800;" xml:space="preserve">
<g>
	<g>
		<path d="M476.2,4H323.8C164.2,4,34.4,133.8,34.4,293.4v137.3c0,118.8,73,225.6,182.8,269.1v89c0,6,3.5,11.5,9.1,13.9
			c2,0.9,4.1,1.3,6.2,1.3c3.7,0,7.4-1.4,10.2-3.9l88.3-80h145.2c159.6,0,289.4-129.8,289.4-289.4V293.4C765.6,133.8,635.8,4,476.2,4
			z M709,424.3c0,130.3-106.1,236.4-236.4,236.4H334.6c-3.4,0-6.8,1.3-9.3,3.6l-61.4,55.6v-59.5c0-5.9-3.7-11.2-9.3-13.1
			C160.4,613.9,97,524.3,97,424.3V299C97,168.6,203.1,62.6,333.4,62.6h139.1C602.9,62.6,709,168.6,709,299V424.3z"/>
		<path d="M579.5,498.7l-93.6-60.8c-10.2-6.7-22.4-8.9-34.4-6.4c-11.9,2.5-22.2,9.6-28.9,19.9l-4.4,6.8
			c-40.5-13.4-85.2-30.5-112-107.9l11.1-9.6l0,0c19-16.5,21-45.4,4.5-64.5l-73.2-84.3c-5.5-6.4-15.1-7-21.5-1.5l-46,40
			c-40.3,35.1-21.5,86.9-15.3,104c0.3,0.8,0.6,1.5,1,2.2c1.6,2.9,39.8,71,101.5,133.9c61.9,63.1,173.7,121.3,177.2,123
			c12.8,8.3,27.1,12.3,41.3,12.3c25,0,49.4-12.2,64-34.7l33.2-51.1C588.6,512.7,586.6,503.3,579.5,498.7z M525.3,554.3
			c-13.7,21.1-42.1,27.1-64.5,12.7c-1.1-0.6-112.2-58.4-170.7-118.1c-54.7-55.7-91.1-117.7-96-126.3c-12.1-33.8-9.9-54.6,7.1-69.4
			l34.5-30l63.3,72.8c5.6,6.5,5,15.9-1.5,21.5l-18.7,16.2c-4.6,4-6.4,10.2-4.6,16C306,453.3,368,473.6,413.2,488.5l6.6,2.2
			c6.6,2.2,13.8-0.3,17.6-6.1l10.8-16.6c2.2-3.4,5.6-5.8,9.6-6.6c4-0.9,8-0.1,11.5,2.2l80.9,52.5L525.3,554.3z"/>
		<path d="M413,281.7c-8.1-2.3-16.5,2.4-18.8,10.5c-2.3,8.1,2.4,16.5,10.5,18.8c22.7,6.5,40.8,24.6,47.2,47.3
			c1.9,6.7,8,11.1,14.7,11.1c1.4,0,2.8-0.2,4.1-0.6c8.1-2.3,12.8-10.7,10.5-18.8C471.9,317.2,445.8,291,413,281.7z"/>
		<path d="M520.8,372.7c1.4,0,2.8-0.2,4.1-0.6c8.1-2.3,12.8-10.7,10.5-18.8c-18-63.7-68.7-114.6-132.4-132.7
			c-8.1-2.3-16.5,2.4-18.8,10.5s2.4,16.5,10.5,18.8c53.6,15.2,96.3,58,111.4,111.6C508.1,368.3,514.2,372.7,520.8,372.7z"/>
		<path d="M396.5,149.7c-8.1-2.3-8.4,2.4-10.7,10.5c-2.3,8.1,2.4,16.5,10.5,18.8c90.8,25.8,163.1,98.3,188.7,189.2
			c1.9,6.7,8,11.1,14.7,11.1c1.4,0,2.8-0.2,4.1-0.6c8.1-2.3,12.8-10.7,10.5-18.8C585.9,258.9,497.4,178.4,396.5,149.7z"/>
	</g>
</g>
</svg>
