<?xml version="1.0" encoding="utf-8"?>
<!-- Generator: Adobe Illustrator 26.0.1, SVG Export Plug-In . SVG Version: 6.00 Build 0)  -->
<svg version="1.1" id="Capa_1" xmlns="http://www.w3.org/2000/svg" xmlns:xlink="http://www.w3.org/1999/xlink" x="0px" y="0px"
	 viewBox="0 0 800 800" style="enable-background:new 0 0 800 800;" xml:space="preserve">
<style type="text/css">
	.st0{fill:#020202;}
</style>
<path class="st0" d="M399.7,0C179.1,0-0.3,179.4-0.3,400c0,76.9,21.8,151.5,63.2,215.8l9.9,15.5L33.9,769.5l143-36.8l14.7,9
	c62.5,38.2,134.5,58.3,208.1,58.3c220.6,0,400-179.4,400-400S620.3,0,399.7,0z M645,522.9l-5,23.3c-5.6,26.3-21.2,49.6-43.9,64.1
	c-28.6,18.3-65.7,27.3-112.8,14c-146.3-41.4-229-138.2-273.4-198.7C165.5,365,148.3,304.5,159.4,255c7.4-33.2,31.7-58.6,46.8-71.8
	c7.4-6.4,17.1-9.7,26.9-9.2l31.3,1.7c6.2,0.3,11.6,4.1,14,9.8l45.5,106.5c2.4,5.7,1.4,12.3-2.6,17l-39.6,45.9
	c-3.2,3.7-3.8,9-1.5,13.4c52.2,100.6,147.3,140.4,175.7,150.4c4.8,1.7,10.2,0.1,13.3-4l41.5-53.8c4.6-6,12.7-8,19.6-4.8l105.6,48.7
	C642.8,508,646.6,515.5,645,522.9z"/>
</svg>
